<?xml version="1.0" encoding="utf-8"?>
<svg width="48px" height="48.00003px" viewBox="0 0 48 48.00003" version="1.1" xmlns:xlink="http://www.w3.org/1999/xlink" xmlns="http://www.w3.org/2000/svg">
  <defs>
    <path d="M0 0L24 0L24 24L0 24L0 0Z" id="path_1" />
    <clipPath id="mask_1">
      <use xlink:href="#path_1" />
    </clipPath>
  </defs>
  <g id="Group">
    <g id="Windows">
      <path d="M0 0L22.9665 0L22.9665 22.9665L0 22.9665L0 0Z" id="Rectangle" fill="#FFFFFF" fill-rule="evenodd" stroke="none" />
      <path d="M25.0335 0L48 0L48 22.9665L25.0335 22.9665L25.0335 0Z" id="Rectangle-2" fill="#FFFFFF" fill-rule="evenodd" stroke="none" />
      <path d="M0.0335083 25.0335L23 25.0335L23 48L0.0335083 48L0.0335083 25.0335Z" id="Rectangle-3" fill="#FFFFFF" fill-rule="evenodd" stroke="none" />
    </g>
    <g id="Refresh-Icon" transform="translate(24 24.00003)">
      <path d="M0 0L24 0L24 24L0 24L0 0Z" id="Background" fill="#FFFFFF" fill-opacity="0" fill-rule="evenodd" stroke="none" />
      <g clip-path="url(#mask_1)">
        <path d="M12 2.5C8.14598 2.5 5 5.64598 5 9.5L5 14.0859L4.20703 13.293C4.01852 13.0992 3.7596 12.99 3.48926 12.9902C3.08251 12.9907 2.71659 13.2375 2.56372 13.6145C2.41085 13.9914 2.50148 14.4233 2.79297 14.707L5.2041 17.1182C5.39373 17.3678 5.68944 17.5141 6.00293 17.5133C6.31641 17.5125 6.6114 17.3648 6.7998 17.1143L9.20703 14.707C9.46827 14.4562 9.5735 14.0838 9.48214 13.7333C9.39079 13.3829 9.11712 13.1092 8.76668 13.0179C8.41624 12.9265 8.04379 13.0317 7.79297 13.293L7 14.0859L7 9.5C7 6.72702 9.22702 4.5 12 4.5C13.0924 4.5 14.0901 4.84988 14.915 5.44434C15.2045 5.66005 15.5878 5.70302 15.9178 5.55675C16.2479 5.41048 16.4735 5.09768 16.5081 4.73833C16.5427 4.37898 16.381 4.02887 16.085 3.82227C14.9379 2.99572 13.5236 2.5 12 2.5L12 2.5ZM17.9854 6.48633C17.6775 6.49103 17.3889 6.63728 17.2031 6.88281L14.793 9.29297C14.5317 9.54379 14.4265 9.91623 14.5179 10.2667C14.6092 10.6171 14.8829 10.8908 15.2333 10.9821C15.5838 11.0735 15.9562 10.9683 16.207 10.707L17 9.91406L17 14.5C17 17.273 14.773 19.5 12 19.5C10.9076 19.5 9.90991 19.1501 9.08496 18.5557C8.79548 18.3399 8.41222 18.297 8.08216 18.4433C7.75211 18.5895 7.5265 18.9023 7.49188 19.2617C7.45725 19.621 7.61898 19.9711 7.91504 20.1777C9.06209 21.0043 10.4764 21.5 12 21.5C15.854 21.5 19 18.354 19 14.5L19 9.91406L19.793 10.707C20.0438 10.9683 20.4162 11.0735 20.7667 10.9821C21.1171 10.8908 21.3908 10.6171 21.4821 10.2667C21.5735 9.91624 21.4683 9.54379 21.207 9.29297L18.793 6.87891C18.6009 6.62775 18.3015 6.48218 17.9854 6.48633L17.9854 6.48633Z" id="Shape" fill="#FFFFFF" fill-rule="evenodd" stroke="none" />
      </g>
    </g>
  </g>
</svg>